# xmcd
#
# Track frame offsets:
#	150
#	45966
#	198506
#
# Disc length: 4147 seconds
#
# Revision: 1
# Processed by: cddbd v1.5PL3 Copyright (c) Steve Scherf et al.
# Submitted via: audiograbber 1.82.01
#
DISCID=1d103103
DTITLE=Jimi Hendrix - Blue Window
DYEAR=1900
DGENRE=
TTITLE0=Jimi Hendrix - Izabella Session
TTITLE1=Jimi Hendrix - Blue Window Jams
TTITLE2=Jimi Hendrix - Keep On Groovin' Session
EXTD=
EXTT0=
EXTT1=
EXTT2=
PLAYORDER=
